<svg width="20" height="20" viewBox="0 0 20 20" fill="current" xmlns="http://www.w3.org/2000/svg">
<g clip-path="url(#clip0)">
<path d="M12.8871 0.115502C12.7954 0.0189134 12.6697 -0.0390701 12.5394 -0.0390701H4.7374C3.29773 -0.0390701 2.10938 1.14456 2.10938 2.58407V17.3377C2.10938 18.7773 3.29773 19.961 4.7374 19.961H15.3267C16.7664 19.961 17.9547 18.7773 17.9547 17.3377V5.62271C17.9547 5.49713 17.8968 5.37644 17.8147 5.28458L12.8871 0.115502ZM13.0272 1.66626L16.3268 5.13001H14.1818C13.5442 5.13001 13.0272 4.61792 13.0272 3.98026V1.66626ZM15.3267 18.9948H4.7374C3.83408 18.9948 3.07556 18.246 3.07556 17.3377V2.58407C3.07556 1.68075 3.8292 0.927118 4.7374 0.927118H12.061V3.98026C12.061 5.15412 13.008 6.0962 14.1818 6.0962H16.9886V17.3377C16.9886 18.246 16.2349 18.9948 15.3267 18.9948Z" fill="current" fill-opacity="0.5"/>
<path d="M14.0078 15.6615H6.05609C5.79044 15.6615 5.573 15.8788 5.573 16.1446C5.573 16.4102 5.79044 16.6277 6.05609 16.6277H14.0127C14.2783 16.6277 14.4957 16.4102 14.4957 16.1446C14.4957 15.8788 14.2783 15.6615 14.0078 15.6615Z" fill="current" fill-opacity="0.5"/>
<path d="M9.67931 13.9272C9.77117 14.0238 9.89675 14.0817 10.0319 14.0817C10.1673 14.0817 10.2929 14.0238 10.3846 13.9272L13.2155 10.8885C13.3991 10.6952 13.3846 10.3861 13.1914 10.2074C12.9981 10.0238 12.689 10.0382 12.5103 10.2315L10.515 12.3715V7.09625C10.515 6.83044 10.2976 6.61315 10.0319 6.61315C9.76629 6.61315 9.54885 6.83044 9.54885 7.09625V12.3715L7.55849 10.2315C7.37493 10.0383 7.07051 10.0238 6.87734 10.2074C6.68416 10.3909 6.66966 10.6953 6.85323 10.8885L9.67931 13.9272Z" fill="current" fill-opacity="0.5"/>
</g>
<defs>
<clipPath id="clip0">
<rect width="20" height="20" fill="white"/>
</clipPath>
</defs>
</svg>
