<svg width="20" height="20" viewBox="0 0 20 20" fill="none" xmlns="http://www.w3.org/2000/svg">
<path d="M17.9167 3.33331H2.08332C0.935 3.33331 0 4.26831 0 5.41667V14.5834C0 15.7317 0.935 16.6667 2.08332 16.6667H17.9166C19.065 16.6667 20 15.7317 20 14.5834V5.41667C20 4.26831 19.065 3.33331 17.9167 3.33331ZM19.1667 14.5833C19.1667 15.2725 18.6059 15.8333 17.9167 15.8333H2.08332C1.39414 15.8333 0.83332 15.2725 0.83332 14.5833V5.41667C0.83332 4.72749 1.39414 4.16667 2.08332 4.16667H17.9166C18.6058 4.16667 19.1666 4.72749 19.1666 5.41667V14.5833H19.1667Z" fill="white"/>
<path d="M18.2599 5.18169C18.1308 4.99169 17.8716 4.94419 17.6808 5.07337L10.8466 9.74918C10.3316 10.1009 9.66661 10.1009 9.15243 9.74918L2.31825 5.07333C2.12743 4.94251 1.86825 4.99165 1.73907 5.18165C1.60989 5.37165 1.65825 5.63083 1.84825 5.76083L8.68243 10.4366C9.08243 10.7108 9.54161 10.8475 9.99993 10.8475C10.4583 10.8475 10.9174 10.7108 11.3174 10.4366L18.1516 5.76083C18.3416 5.63083 18.3899 5.37169 18.2599 5.18169Z" fill="white"/>
<path d="M7.40323 10.1492C7.25573 9.97336 6.99241 9.94918 6.81573 10.0959L1.81573 14.2625C1.63905 14.41 1.61491 14.6734 1.76241 14.85C1.84491 14.9492 1.96323 15 2.08323 15C2.17741 15 2.27241 14.9684 2.34991 14.9034L7.34991 10.7367C7.52659 10.5892 7.55073 10.3258 7.40323 10.1492Z" fill="white"/>
<path d="M18.1841 14.2625L13.1841 10.0958C13.0066 9.94914 12.7441 9.97332 12.5966 10.1491C12.4491 10.3266 12.4733 10.5891 12.6499 10.7366L17.6499 14.9033C17.7283 14.9683 17.8224 15 17.9166 15C18.0358 15 18.1541 14.9492 18.2374 14.85C18.3849 14.6725 18.3608 14.41 18.1841 14.2625Z" fill="white"/>
</svg>
