<svg width="100" height="100" viewBox="0 0 100 100" fill="current" xmlns="http://www.w3.org/2000/svg">
<g clip-path="url(#clip0)">
<path d="M93.75 25H39.5833C36.1375 25 33.3333 22.1958 33.3333 18.75V6.25C33.3333 2.80417 36.1375 0 39.5833 0H93.75C97.1958 0 100 2.80417 100 6.25V18.75C100 22.1958 97.1958 25 93.75 25ZM39.5833 4.16667C38.4375 4.16667 37.5 5.1 37.5 6.25V18.75C37.5 19.9 38.4375 20.8333 39.5833 20.8333H93.75C94.8958 20.8333 95.8333 19.9 95.8333 18.75V6.25C95.8333 5.1 94.8958 4.16667 93.75 4.16667H39.5833Z" fill="current"/>
<path d="M12.5 25C5.60833 25 0 19.3917 0 12.5C0 5.60833 5.60833 0 12.5 0C19.3917 0 25 5.60833 25 12.5C25 19.3917 19.3917 25 12.5 25ZM12.5 4.16667C7.90417 4.16667 4.16667 7.90417 4.16667 12.5C4.16667 17.0958 7.90417 20.8333 12.5 20.8333C17.0958 20.8333 20.8333 17.0958 20.8333 12.5C20.8333 7.90417 17.0958 4.16667 12.5 4.16667Z" fill="current"/>
<path d="M97.9167 37.4999H56.25C55.1 37.4999 54.1667 36.5666 54.1667 35.4166C54.1667 34.2666 55.1 33.3333 56.25 33.3333H97.9167C99.0667 33.3333 100 34.2666 100 35.4166C100 36.5666 99.0667 37.4999 97.9167 37.4999Z" fill="current"/>
<path d="M97.9167 49.9999H56.25C55.1 49.9999 54.1667 49.0666 54.1667 47.9166C54.1667 46.7666 55.1 45.8333 56.25 45.8333H97.9167C99.0667 45.8333 100 46.7666 100 47.9166C100 49.0666 99.0667 49.9999 97.9167 49.9999Z" fill="current"/>
<path d="M97.9167 62.4999H56.25C55.1 62.4999 54.1667 61.5666 54.1667 60.4166C54.1667 59.2666 55.1 58.3333 56.25 58.3333H97.9167C99.0667 58.3333 100 59.2666 100 60.4166C100 61.5666 99.0667 62.4999 97.9167 62.4999Z" fill="current"/>
<path d="M97.9167 74.9999H56.25C55.1 74.9999 54.1667 74.0666 54.1667 72.9166C54.1667 71.7666 55.1 70.8333 56.25 70.8333H97.9167C99.0667 70.8333 100 71.7666 100 72.9166C100 74.0666 99.0667 74.9999 97.9167 74.9999Z" fill="current"/>
<path d="M97.9167 87.4999H56.25C55.1 87.4999 54.1667 86.5666 54.1667 85.4166C54.1667 84.2666 55.1 83.3333 56.25 83.3333H97.9167C99.0667 83.3333 100 84.2666 100 85.4166C100 86.5666 99.0667 87.4999 97.9167 87.4999Z" fill="current"/>
<path d="M39.5833 99.9999H6.24999C2.80416 99.9999 -7.62939e-06 97.1957 -7.62939e-06 93.7499V39.5832C-7.62939e-06 36.1374 2.80416 33.3333 6.24999 33.3333H39.5833C43.0292 33.3333 45.8333 36.1374 45.8333 39.5832V93.7499C45.8333 97.1957 43.0292 99.9999 39.5833 99.9999ZM6.24999 37.4999C5.10416 37.4999 4.16666 38.4332 4.16666 39.5832V93.7499C4.16666 94.8999 5.10416 95.8332 6.24999 95.8332H39.5833C40.7292 95.8332 41.6667 94.8999 41.6667 93.7499V39.5832C41.6667 38.4332 40.7292 37.4999 39.5833 37.4999H6.24999Z" fill="current"/>
<path d="M97.9167 99.9999H56.25C55.1 99.9999 54.1667 99.0666 54.1667 97.9166C54.1667 96.7666 55.1 95.8333 56.25 95.8333H97.9167C99.0667 95.8333 100 96.7666 100 97.9166C100 99.0666 99.0667 99.9999 97.9167 99.9999Z" fill="black"/>
</g>
<defs>
<clipPath id="clip0">
<rect width="100" height="100" fill="white"/>
</clipPath>
</defs>
</svg>
