<svg width="100" height="100" viewBox="0 0 100 100" fill="current" xmlns="http://www.w3.org/2000/svg">
<path d="M96.875 82.8125H85.1562C86.6062 82.8109 87.9962 82.2342 89.0215 81.209C90.0467 80.1837 90.6234 78.7937 90.625 77.3438V75.7812C90.6234 74.3313 90.0467 72.9413 89.0215 71.916C87.9962 70.8908 86.6062 70.3141 85.1562 70.3125H81.3574L77.1035 50.7305C76.8864 48.401 75.8099 46.2357 74.0837 44.6564C72.3575 43.0772 70.1052 42.1971 67.7656 42.1875H59.375V40.625C59.3745 40.4418 59.3422 40.26 59.2793 40.0879C60.7897 38.5009 61.8238 36.5213 62.2637 34.375H62.5C63.7427 34.3733 64.934 33.879 65.8127 33.0002C66.6915 32.1215 67.1858 30.9302 67.1875 29.6875V19.5312C67.1827 15.1815 65.4527 11.0113 62.377 7.93553C59.3012 4.85979 55.131 3.12976 50.7812 3.125H49.2188C44.869 3.12976 40.6988 4.85979 37.623 7.93553C34.5473 11.0113 32.8173 15.1815 32.8125 19.5312V29.6875C32.8142 30.9302 33.3085 32.1215 34.1873 33.0002C35.066 33.879 36.2573 34.3733 37.5 34.375H37.7363C38.1762 36.5213 39.2103 38.5009 40.7207 40.0879C40.6578 40.26 40.6255 40.4418 40.625 40.625V42.1875H32.2344C29.8948 42.1971 27.6425 43.0772 25.9163 44.6564C24.1901 46.2357 23.1136 48.401 22.8965 50.7305L19.3223 67.1875H17.9688C17.531 67.1872 17.0948 67.2403 16.6699 67.3457L12.3359 58.6758C12.1505 58.3049 11.8253 58.0229 11.4319 57.8917C11.0385 57.7606 10.6092 57.7911 10.2383 57.9766C9.86739 58.162 9.58536 58.4872 9.45423 58.8806C9.3231 59.274 9.35362 59.7033 9.53906 60.0742L13.9687 68.9316C13.0246 69.942 12.4996 71.2734 12.5 72.6562V77.3438C12.5016 78.7937 13.0783 80.1837 14.1035 81.209C15.1288 82.2342 16.5188 82.8109 17.9688 82.8125H3.125C2.7106 82.8125 2.31317 82.9771 2.02015 83.2701C1.72712 83.5632 1.5625 83.9606 1.5625 84.375V90.625C1.5625 91.0394 1.72712 91.4368 2.02015 91.7299C2.31317 92.0229 2.7106 92.1875 3.125 92.1875H4.6875V95.3125C4.6875 95.7269 4.85212 96.1243 5.14515 96.4174C5.43817 96.7104 5.8356 96.875 6.25 96.875H93.75C94.1644 96.875 94.5618 96.7104 94.8549 96.4174C95.1479 96.1243 95.3125 95.7269 95.3125 95.3125V92.1875H96.875C97.2894 92.1875 97.6868 92.0229 97.9799 91.7299C98.2729 91.4368 98.4375 91.0394 98.4375 90.625V84.375C98.4375 83.9606 98.2729 83.5632 97.9799 83.2701C97.6868 82.9771 97.2894 82.8125 96.875 82.8125ZM80.4688 73.4375H85.1562C85.7777 73.438 86.3735 73.6851 86.813 74.1245C87.2524 74.564 87.4995 75.1598 87.5 75.7812V77.3438C87.4995 77.9652 87.2524 78.561 86.813 79.0005C86.3735 79.4399 85.7777 79.687 85.1562 79.6875H80.4688C79.8473 79.687 79.2515 79.4399 78.812 79.0005C78.3726 78.561 78.1255 77.9652 78.125 77.3438V75.7812C78.1255 75.1598 78.3726 74.564 78.812 74.1245C79.2515 73.6851 79.8473 73.438 80.4688 73.4375ZM64.0625 29.6875C64.0619 30.1017 63.8971 30.4988 63.6042 30.7917C63.3113 31.0846 62.9142 31.2494 62.5 31.25V25H64.0625V29.6875ZM37.5 31.25C37.0858 31.2494 36.6887 31.0846 36.3958 30.7917C36.1029 30.4988 35.9381 30.1017 35.9375 29.6875V25H37.5V31.25ZM35.9375 21.875V19.5312C35.9412 16.01 37.3416 12.634 39.8315 10.144C42.3215 7.65412 45.6975 6.25367 49.2188 6.25H50.7812C54.3025 6.25367 57.6785 7.65412 60.1685 10.144C62.6584 12.634 64.0588 16.01 64.0625 19.5312V21.875H62.5V21.0938C62.5 20.7949 62.4883 20.4961 62.4668 20.2051C62.4481 19.9607 62.3721 19.7241 62.2451 19.5145C62.118 19.3049 61.9435 19.1281 61.7355 18.9984C61.5275 18.8688 61.2919 18.7899 61.0477 18.7681C60.8036 18.7463 60.5578 18.7823 60.3301 18.873C52.8848 21.8379 39.1992 21.875 39.0625 21.875H35.9375ZM40.625 32.0312V24.9766C44.1602 24.8887 52.9023 24.4727 59.375 22.5098V32.0312C59.3723 34.3096 58.466 36.4939 56.855 38.105C55.2439 39.716 53.0596 40.6223 50.7812 40.625H49.2188C46.9404 40.6223 44.7561 39.716 43.145 38.105C41.534 36.4939 40.6277 34.3096 40.625 32.0312ZM56.25 42.3906V43.75C56.25 46.334 53.4473 48.4375 50 48.4375C46.5527 48.4375 43.75 46.334 43.75 43.75V42.3906C45.4339 43.2852 47.312 43.752 49.2188 43.75H50.7812C52.688 43.752 54.5661 43.2852 56.25 42.3906ZM25.9727 51.2949C25.988 51.2248 25.9984 51.1536 26.0039 51.082C26.131 49.5147 26.8417 48.0522 27.9955 46.9838C29.1492 45.9154 30.6619 45.319 32.2344 45.3125H40.8145C41.6855 48.875 45.4727 51.5625 50 51.5625C54.5273 51.5625 58.3145 48.875 59.1855 45.3125H67.7656C69.3381 45.319 70.8508 45.9154 72.0045 46.9838C73.1583 48.0522 73.869 49.5147 73.9961 51.082C74.0016 51.1536 74.012 51.2248 74.0273 51.2949L78.2617 70.7793C77.2922 71.2079 76.468 71.9086 75.889 72.7965C75.31 73.6844 75.0012 74.7213 75 75.7812V77.3438C75.0016 78.7937 75.5783 80.1837 76.6035 81.209C77.6288 82.2342 79.0188 82.8109 80.4688 82.8125H73.4375V58.5938C73.4359 57.1438 72.8592 55.7538 71.834 54.7285C70.8087 53.7033 69.4187 53.1266 67.9688 53.125H32.0312C30.5813 53.1266 29.1913 53.7033 28.166 54.7285C27.1408 55.7538 26.5641 57.1438 26.5625 58.5938V82.8125H19.5312C20.9812 82.8109 22.3712 82.2342 23.3965 81.209C24.4217 80.1837 24.9984 78.7937 25 77.3438V72.6562C24.9997 71.7133 24.7555 70.7864 24.2911 69.9657C23.8267 69.145 23.1579 68.4584 22.3496 67.9727L25.9727 51.2949ZM70.3125 58.5938V82.8125H29.6875V58.5938C29.688 57.9723 29.9351 57.3765 30.3745 56.937C30.814 56.4976 31.4098 56.2505 32.0312 56.25H67.9688C68.5902 56.2505 69.186 56.4976 69.6255 56.937C70.0649 57.3765 70.312 57.9723 70.3125 58.5938ZM15.625 77.3438V72.6562C15.6255 72.0348 15.8726 71.439 16.312 70.9995C16.7515 70.5601 17.3473 70.313 17.9688 70.3125H19.5312C20.1527 70.313 20.7485 70.5601 21.188 70.9995C21.6274 71.439 21.8745 72.0348 21.875 72.6562V77.3438C21.8745 77.9652 21.6274 78.561 21.188 79.0005C20.7485 79.4399 20.1527 79.687 19.5312 79.6875H17.9688C17.3473 79.687 16.7515 79.4399 16.312 79.0005C15.8726 78.561 15.6255 77.9652 15.625 77.3438ZM92.1875 93.75H7.8125V92.1875H92.1875V93.75ZM95.3125 89.0625H4.6875V85.9375H95.3125V89.0625Z" fill="current"/>
<path d="M50 65.625C48.7639 65.625 47.5555 65.9916 46.5277 66.6783C45.4999 67.3651 44.6988 68.3412 44.2258 69.4832C43.7527 70.6253 43.6289 71.8819 43.8701 73.0943C44.1113 74.3067 44.7065 75.4203 45.5806 76.2944C46.4547 77.1685 47.5683 77.7637 48.7807 78.0049C49.9931 78.2461 51.2497 78.1223 52.3918 77.6492C53.5338 77.1762 54.5099 76.3751 55.1967 75.3473C55.8835 74.3195 56.25 73.1111 56.25 71.875C56.2482 70.218 55.5891 68.6293 54.4174 67.4576C53.2457 66.2859 51.657 65.6269 50 65.625ZM50 75C49.3819 75 48.7778 74.8167 48.2638 74.4733C47.7499 74.13 47.3494 73.6419 47.1129 73.0709C46.8764 72.4999 46.8145 71.8715 46.9351 71.2653C47.0556 70.6591 47.3533 70.1023 47.7903 69.6653C48.2273 69.2282 48.7842 68.9306 49.3904 68.81C49.9965 68.6895 50.6249 68.7514 51.1959 68.9879C51.7669 69.2244 52.255 69.6249 52.5984 70.1388C52.9417 70.6527 53.125 71.2569 53.125 71.875C53.124 72.7035 52.7945 73.4978 52.2086 74.0836C51.6228 74.6695 50.8285 74.999 50 75Z" fill="current"/>
<path d="M45.3125 29.6875C46.1754 29.6875 46.875 28.9879 46.875 28.125C46.875 27.2621 46.1754 26.5625 45.3125 26.5625C44.4496 26.5625 43.75 27.2621 43.75 28.125C43.75 28.9879 44.4496 29.6875 45.3125 29.6875Z" fill="current"/>
<path d="M54.6875 29.6875C55.5504 29.6875 56.25 28.9879 56.25 28.125C56.25 27.2621 55.5504 26.5625 54.6875 26.5625C53.8246 26.5625 53.125 27.2621 53.125 28.125C53.125 28.9879 53.8246 29.6875 54.6875 29.6875Z" fill="current"/>
<path d="M48.4375 37.5H51.5625C51.9769 37.5 52.3743 37.3354 52.6674 37.0424C52.9604 36.7493 53.125 36.3519 53.125 35.9375C53.125 35.5231 52.9604 35.1257 52.6674 34.8326C52.3743 34.5396 51.9769 34.375 51.5625 34.375H48.4375C48.0231 34.375 47.6257 34.5396 47.3326 34.8326C47.0396 35.1257 46.875 35.5231 46.875 35.9375C46.875 36.3519 47.0396 36.7493 47.3326 37.0424C47.6257 37.3354 48.0231 37.5 48.4375 37.5Z" fill="current"/>
</svg>
