<svg width="100" height="100" viewBox="0 0 100 100" fill="none" xmlns="http://www.w3.org/2000/svg">
<path d="M39.5419 75.1161C31.0406 75.1093 22.8028 72.1654 16.2228 66.7825C9.64276 61.3995 5.12484 53.9084 3.43372 45.577C1.74259 37.2456 2.98217 28.5858 6.94262 21.0633C10.9031 13.5409 17.3411 7.61801 25.167 4.29716C32.9928 0.976316 41.7257 0.461545 49.8876 2.83998C58.0494 5.21842 65.1386 10.3439 69.9554 17.349C74.7722 24.354 77.0206 32.8083 76.32 41.2806C75.6194 49.753 72.0128 57.7231 66.1108 63.8418C62.6716 67.4159 58.5448 70.2573 53.9788 72.1948C49.4128 74.1324 44.502 75.1261 39.5419 75.1161ZM39.5541 4.06878C31.6213 4.07292 23.937 6.83689 17.8191 11.8867C11.7012 16.9365 7.53084 23.9575 6.02312 31.7457C4.51541 39.5339 5.76432 47.604 9.55567 54.5722C13.347 61.5403 19.4446 66.9723 26.8027 69.9366C34.1609 72.9009 42.3211 73.2128 49.8841 70.8189C57.447 68.425 63.9415 63.4743 68.2537 56.8159C72.566 50.1576 74.4273 42.2063 73.5185 34.3258C72.6098 26.4452 68.9875 19.1263 63.273 13.6242C56.9058 7.48236 48.4007 4.05596 39.5541 4.06878Z" fill="black"/>
<path d="M39.5338 66.5256C33.9853 66.5227 28.5602 64.8881 23.9338 61.8251C19.3075 58.7621 15.6841 54.4061 13.5148 49.2993C11.3454 44.1925 10.726 38.5605 11.7335 33.1043C12.741 27.6481 15.331 22.6087 19.1811 18.6134C22.4089 15.2641 26.413 12.7625 30.8385 11.3302C35.2641 9.89799 39.9746 9.57931 44.5528 10.4024C49.131 11.2255 53.4355 13.165 57.085 16.0491C60.7346 18.9331 63.6165 22.6728 65.4756 26.9367C67.3347 31.2006 68.1134 35.8572 67.743 40.494C67.3725 45.1308 65.8642 49.6046 63.3517 53.5193C60.8391 57.4339 57.3999 60.6685 53.3387 62.9364C49.2775 65.2044 44.7197 66.4358 40.0689 66.5215C39.8919 66.5256 39.7121 66.5256 39.5338 66.5256ZM21.1284 20.4891C17.6167 24.1321 15.2641 28.7346 14.3683 33.7146C13.4725 38.6947 14.0737 43.8285 16.0957 48.4669C18.1178 53.1053 21.4699 57.0398 25.7282 59.773C29.9865 62.5062 34.9597 63.9152 40.0188 63.8218C45.0779 63.7284 49.9957 62.1369 54.1502 59.2484C58.3047 56.36 61.5094 52.3044 63.3589 47.5946C65.2084 42.8847 65.6197 37.7322 64.5407 32.7886C63.4618 27.845 60.941 23.3324 57.2973 19.8215C54.8899 17.4689 52.0391 15.6181 48.9103 14.3767C45.7816 13.1353 42.4373 12.528 39.0718 12.5901C35.7064 12.6522 32.3868 13.3825 29.306 14.7385C26.2252 16.0945 23.4446 18.0492 21.1257 20.4891H21.1284Z" fill="black"/>
<path d="M88.5932 96.9015C88.5027 96.9015 88.4108 96.9015 88.323 96.9015C86.747 96.8619 85.1964 96.4962 83.7688 95.8275C82.3412 95.1589 81.0676 94.2017 80.0284 93.0163L58.5689 68.5569C58.3505 68.2857 58.2452 67.9407 58.2749 67.5937C58.3047 67.2468 58.4672 66.9247 58.7286 66.6947C58.99 66.4647 59.3301 66.3444 59.678 66.359C60.0259 66.3736 60.3547 66.522 60.5959 66.7731L82.0568 91.2325C82.8484 92.1391 83.8198 92.8712 84.9094 93.3825C85.999 93.8938 87.1829 94.1731 88.3861 94.2026C89.5893 94.2322 90.7855 94.0114 91.8988 93.5543C93.0122 93.0972 94.0184 92.4136 94.8537 91.5471C95.6889 90.6805 96.335 89.6499 96.7509 88.5205C97.1668 87.391 97.3435 86.1875 97.2697 84.9862C97.1959 83.7849 96.8733 82.6121 96.3223 81.5421C95.7713 80.472 95.0039 79.5282 94.0689 78.7704L68.8311 58.2298C68.5526 58.0031 68.3756 57.6751 68.339 57.3179C68.3023 56.9607 68.4091 56.6036 68.6358 56.3251C68.8625 56.0466 69.1905 55.8696 69.5477 55.833C69.9049 55.7964 70.2621 55.9031 70.5405 56.1298L95.7784 76.6704C97.6041 78.1543 98.9256 80.1672 99.5612 82.4324C100.197 84.6977 100.115 87.1042 99.328 89.3213C98.5407 91.5384 97.0861 93.4573 95.1642 94.8143C93.2423 96.1714 90.9473 96.9 88.5946 96.9001L88.5932 96.9015Z" fill="black"/>
</svg>
