<svg width="100" height="100" viewBox="0 0 100 100" fill="none" xmlns="http://www.w3.org/2000/svg">
<g clip-path="url(#clip0)">
<path d="M41.0857 88.6498L40.792 90.0849L41.0751 88.6483C40.2816 88.4919 39.511 89.0084 39.3546 89.8018C39.1982 90.5961 39.7147 91.3659 40.509 91.5223C40.5113 91.523 40.5334 91.5269 40.5357 91.5276C40.6287 91.5452 40.7211 91.5543 40.8126 91.5543C41.5016 91.5543 42.1157 91.066 42.2492 90.3641C42.4018 89.5692 41.8807 88.8016 41.0857 88.6498Z" fill="black"/>
<path d="M52.2857 89.1204L52.4314 90.5776L52.2811 89.1212C51.4762 89.2036 50.891 89.923 50.9742 90.7279C51.0512 91.4817 51.6875 92.0432 52.4291 92.0432C52.4795 92.0432 52.5306 92.0402 52.5809 92.0356L52.6214 92.031C53.4225 91.9372 53.9909 91.2147 53.9016 90.4136C53.8116 89.6133 53.0868 89.0365 52.2857 89.1204Z" fill="black"/>
<path d="M46.6781 89.305C46.6781 89.305 46.6575 89.3043 46.6567 89.3043C45.8495 89.2676 45.1751 89.8948 45.1385 90.7027C45.1026 91.5107 45.7374 92.195 46.5453 92.2317C46.5682 92.2332 46.5903 92.2332 46.6132 92.2332C47.3914 92.2332 48.0399 91.6205 48.075 90.8347C48.1117 90.0268 47.4868 89.3416 46.6781 89.305Z" fill="black"/>
<path d="M35.675 87.1614L35.6567 87.1545C34.8953 86.8814 34.0652 87.2796 33.792 88.041C33.5182 88.8024 33.9225 89.6447 34.6839 89.9186C34.848 89.9774 35.015 90.0048 35.1791 90.0048C35.7795 90.0048 36.3433 89.6333 36.5577 89.0351C36.8316 88.2737 36.4364 87.4345 35.675 87.1614Z" fill="black"/>
<path d="M57.8139 88.0951L58.1748 89.5149L57.8094 88.0966C57.0258 88.298 56.5543 89.0968 56.7557 89.8803C56.9259 90.541 57.521 90.9805 58.1733 90.9805C58.2946 90.9805 58.4174 90.9652 58.5403 90.9332C58.5464 90.9317 58.5723 90.9248 58.5792 90.9233C59.3566 90.7112 59.8113 89.9124 59.6038 89.1334C59.3963 88.3552 58.5944 87.8921 57.8139 88.0951Z" fill="black"/>
<path d="M63.1094 86.2481L63.69 87.5924L63.1049 86.2496C62.3633 86.5731 62.0238 87.436 62.3465 88.1775C62.5868 88.7291 63.1255 89.058 63.6908 89.058C63.8853 89.058 64.0845 89.0183 64.2744 88.9359C64.2805 88.9328 64.3042 88.9229 64.3103 88.9199C65.045 88.588 65.3693 87.7274 65.0412 86.9912C64.7131 86.2542 63.848 85.9238 63.1094 86.2481Z" fill="black"/>
<path d="M30.0796 19.4725C30.3146 19.4725 30.5534 19.4161 30.7739 19.2986C31.488 18.9179 31.7573 18.0306 31.3766 17.3165C30.9959 16.6031 30.1093 16.3323 29.3952 16.7137L29.3777 16.7229C28.6643 17.1036 28.4027 17.9863 28.7834 18.7004C29.0458 19.1933 29.5555 19.4725 30.0796 19.4725Z" fill="black"/>
<path d="M13.1355 35.8337C13.353 35.9474 13.5857 36.0016 13.8153 36.0016C14.3425 36.0016 14.8521 35.7163 15.1138 35.2165L15.1398 35.1654C15.4968 34.4391 15.1977 33.5609 14.4714 33.2047C13.7504 32.8491 12.8792 33.1421 12.5175 33.8585C12.1437 34.5741 12.4199 35.4584 13.1355 35.8337Z" fill="black"/>
<path d="M11.0733 41.3446C11.2289 41.3972 11.3868 41.4224 11.5432 41.4224C12.1536 41.4224 12.7235 41.0371 12.9303 40.4268L12.9493 40.3688C13.1874 39.5959 12.7533 38.7758 11.9796 38.5385C11.2129 38.302 10.3988 38.7277 10.1539 39.4906C9.89681 40.2559 10.308 41.0859 11.0733 41.3446Z" fill="black"/>
<path d="M16.0255 30.7091C16.2856 30.8983 16.587 30.9899 16.8861 30.9899C17.3385 30.9899 17.7856 30.7801 18.0717 30.3864L18.0907 30.3605C18.5607 29.7028 18.4074 28.7903 17.7512 28.3204C17.0943 27.8496 16.1788 28.0007 15.7073 28.6568L16.8876 29.525L15.7027 28.6629C15.2267 29.3175 15.3716 30.2338 16.0255 30.7091Z" fill="black"/>
<path d="M25.1068 22.6365C25.4143 22.6365 25.724 22.5396 25.9888 22.3382C26.6418 21.8606 26.783 20.9443 26.3054 20.2912C25.827 19.6382 24.9107 19.497 24.2584 19.9746L24.2218 20.0013C23.5779 20.4904 23.4497 21.4112 23.9387 22.0559C24.2271 22.4359 24.6643 22.6365 25.1068 22.6365Z" fill="black"/>
<path d="M9.76564 63.5596C9.95943 64.1891 10.5377 64.5927 11.1633 64.5927C11.306 64.5927 11.4517 64.5713 11.5952 64.5271C12.3642 64.2913 12.7983 63.4765 12.5679 62.7059C12.3474 61.9369 11.5502 61.4852 10.7742 61.6965C9.99376 61.9094 9.53371 62.7151 9.74657 63.4956C9.75115 63.5108 9.76106 63.5444 9.76564 63.5596Z" fill="black"/>
<path d="M20.6817 26.4969C21.0624 26.4969 21.4431 26.3497 21.7308 26.0567C22.3022 25.4845 22.3022 24.5568 21.7308 23.9853C21.1585 23.4131 20.2308 23.4131 19.6586 23.9853L19.6342 24.0097C19.0681 24.5873 19.0795 25.5135 19.6571 26.0796C19.9417 26.3588 20.3117 26.4969 20.6817 26.4969Z" fill="black"/>
<path d="M11.3845 57.173C11.2815 56.3773 10.5545 55.8127 9.75795 55.9073C8.95534 56.0034 8.38161 56.7321 8.47697 57.5354L8.48537 57.5942C8.59218 58.322 9.21702 58.8439 9.9319 58.8439C10.0021 58.8439 10.0738 58.8385 10.1463 58.8279C10.9436 58.7119 11.4967 57.9703 11.3845 57.173Z" fill="black"/>
<path d="M9.54435 52.9778C9.55961 52.9778 9.5741 52.9786 9.5886 52.9786C10.3775 52.9786 11.029 52.3507 11.0519 51.5565L11.0534 51.4939C11.0534 50.6844 10.3973 50.0291 9.5886 50.0291C8.78522 50.0291 8.13367 50.6745 8.12375 51.4748C8.10239 52.282 8.73792 52.9542 9.54435 52.9778Z" fill="black"/>
<path d="M9.86553 47.1031C9.95327 47.1183 10.0395 47.126 10.1257 47.126C10.8215 47.126 11.4387 46.6278 11.5661 45.919C11.5699 45.8976 11.573 45.8763 11.576 45.8549C11.6943 45.0546 11.1412 44.31 10.3401 44.1925C9.54891 44.075 8.80809 44.619 8.68068 45.4078C8.54183 46.2028 9.07131 46.9604 9.86553 47.1031Z" fill="black"/>
<path d="M78.9648 31.1714C79.2486 31.5834 79.7049 31.8038 80.1703 31.8038C80.4564 31.8038 80.7463 31.7199 80.9996 31.5452C81.6656 31.0874 81.8342 30.175 81.3765 29.5082L80.1588 30.323L81.3719 29.5013C80.9172 28.8314 80.0062 28.6567 79.3371 29.1107C78.6673 29.5646 78.4925 30.4756 78.9465 31.1454L78.9648 31.1714Z" fill="black"/>
<path d="M86.4454 45.9121C85.6413 46.0021 85.063 46.7277 85.1538 47.5318L85.1614 47.5952C85.2659 48.3253 85.8931 48.8525 86.6102 48.8525C86.6789 48.8525 86.7491 48.8479 86.8193 48.838C87.6135 48.7243 88.1674 47.9926 88.0644 47.1992C87.9721 46.3973 87.2442 45.8221 86.4454 45.9121Z" fill="black"/>
<path d="M83.9735 41.7787L83.9796 41.7978C84.1673 42.4363 84.751 42.8499 85.3842 42.8499C85.5208 42.8499 85.6596 42.8308 85.7977 42.7896C86.5744 42.5615 87.0184 41.7474 86.7903 40.9707L86.7842 40.9517C86.5561 40.175 85.742 39.731 84.9654 39.9598C84.1895 40.188 83.7454 41.002 83.9735 41.7787Z" fill="black"/>
<path d="M81.9045 36.3015C82.1601 36.8211 82.6827 37.124 83.2259 37.124C83.4418 37.124 83.6615 37.0759 83.8683 36.9737C84.5938 36.6166 84.8952 35.7438 84.5374 35.0175L83.2099 35.6363L84.5359 35.0145C84.1925 34.282 83.3205 33.9669 82.5881 34.3103C81.8557 34.6536 81.5398 35.5256 81.8831 36.258L81.9045 36.3015Z" fill="black"/>
<path d="M75.2753 26.5968C75.5621 26.8897 75.9413 27.0362 76.3213 27.0362C76.6913 27.0362 77.0613 26.8974 77.3466 26.6174C77.9204 26.0558 77.9333 25.138 77.3802 24.5597C76.8317 23.9684 75.907 23.9326 75.3134 24.4804C74.7191 25.0289 74.6825 25.9559 75.231 26.5502L75.2753 26.5968Z" fill="black"/>
<path d="M86.9216 52.0286C86.1167 52.008 85.443 52.6389 85.4148 53.4438C85.3781 54.2457 85.9938 54.9285 86.7964 54.9735C86.8247 54.975 86.8514 54.9758 86.8796 54.9758C87.6509 54.9758 88.2971 54.3723 88.3406 53.5918L88.3429 53.5316C88.3658 52.7236 87.7295 52.0522 86.9216 52.0286Z" fill="black"/>
<path d="M65.908 19.404L65.9431 19.4231C66.1613 19.5391 66.3955 19.594 66.6259 19.594C67.147 19.594 67.6513 19.3132 67.916 18.8211C68.2975 18.1109 68.0289 17.2228 67.3209 16.8383L66.6122 18.12L67.3164 16.8352C66.6068 16.4461 65.7165 16.7063 65.3274 17.4158C64.939 18.1246 65.1984 19.0157 65.908 19.404Z" fill="black"/>
<path d="M70.8624 22.6167L70.8853 22.6342C71.1501 22.8349 71.4606 22.9318 71.7696 22.9318C72.2121 22.9318 72.6492 22.7319 72.9376 22.352C73.4267 21.7073 73.3 20.7887 72.6561 20.2996L72.6462 20.2928C72.0046 19.7999 71.0852 19.9205 70.5924 20.5621C70.0995 21.2037 70.2208 22.1238 70.8624 22.6167Z" fill="black"/>
<path d="M99.0959 74.205L92.2195 67.3164C91.6344 66.7305 90.8569 66.4078 90.0291 66.4078C89.2021 66.4078 88.4239 66.7305 87.8395 67.3164L87.6801 67.4759L87.2284 67.0242C86.6707 66.465 86.2389 65.8142 85.9459 65.1054C85.92 65.0116 85.8856 64.92 85.8414 64.8338C85.6171 64.2036 85.5003 63.533 85.5003 62.8441V60.8955C85.6339 60.9657 85.7796 61.0168 85.936 61.0435C86.0199 61.058 86.1031 61.0649 86.1855 61.0649C86.8805 61.0649 87.4954 60.569 87.6244 59.864C87.7808 59.0721 87.2673 58.3023 86.4746 58.1436C86.1259 58.0742 85.7811 58.1345 85.4912 58.2916C85.4012 56.2103 84.5505 54.2664 83.0704 52.7832L76.3992 46.1006C74.9023 44.6014 72.9118 43.7759 70.7947 43.7759C69.1559 43.7759 67.5949 44.2726 66.2781 45.192L65.5701 44.4801V27.726C65.5701 25.7065 64.8369 23.7579 63.5063 22.2404C62.5595 21.1617 62.0384 19.7762 62.0384 18.3388V17.1112H62.1391C63.8466 17.1112 65.2359 15.7219 65.2359 14.0137V4.26941C65.2359 2.56119 63.8466 1.17188 62.1391 1.17188H34.7763C33.0688 1.17188 31.6795 2.56119 31.6795 4.26941V14.0137C31.6795 15.7219 33.0688 17.1112 34.7763 17.1112H35.0021V17.7536C35.0021 19.3329 34.388 20.8176 33.2733 21.9337L30.32 24.8924C28.7529 26.4626 27.89 28.5492 27.89 30.7693V40.2199C27.89 41.5039 28.1982 42.7162 28.7407 43.7904C26.7982 43.9026 24.9878 44.7121 23.6008 46.1006L16.9296 52.7832C15.3625 54.3533 14.4997 56.4407 14.4997 58.6601V62.8441C14.4997 64.4234 13.8863 65.9081 12.7716 67.0242L12.3253 67.4713C12.323 67.4728 12.3215 67.4744 12.3199 67.4759L12.1613 67.3164C11.5761 66.7305 10.7986 66.4078 9.97086 66.4078C9.14383 66.4078 8.36563 66.7305 7.78122 67.3164L0.904083 74.205C-0.301361 75.4128 -0.301361 77.3781 0.904083 78.5858L3.25928 80.9441C3.83072 81.517 4.75845 81.5178 5.33066 80.9464C5.90286 80.3741 5.90439 79.4472 5.33218 78.8742L2.97775 76.5152C2.91138 76.4488 2.91138 76.3412 2.97775 76.2749L9.85489 69.3863C9.91898 69.3222 10.0235 69.3214 10.0876 69.3863L11.2831 70.5841H11.2839L27.6085 86.937L29.4373 88.7695C29.5036 88.8359 29.5036 88.9435 29.4373 89.0099L22.5609 95.8984C22.496 95.9633 22.3915 95.9633 22.3274 95.8984L9.47952 83.0284C8.90808 82.4554 7.98035 82.4547 7.40814 83.0261C6.83517 83.5983 6.83441 84.5253 7.40585 85.0983L20.2545 97.9683C20.8389 98.5542 21.6171 98.877 22.4449 98.877C23.2719 98.877 24.0494 98.5542 24.6346 97.9683L31.5109 91.0797C32.7164 89.8727 32.7164 87.9074 31.5109 86.6997L31.4362 86.6249L32.3036 85.7559C33.3168 84.7404 34.6626 84.1301 36.0931 84.0378C38.1065 83.9073 40.0009 83.0482 41.4268 81.6193L47.744 75.2884C49.5659 74.81 50.9842 73.3261 51.3695 71.4676C52.0187 71.7766 52.7443 71.9505 53.5103 71.9505C56.2653 71.9505 58.5068 69.7067 58.5068 66.9479V63.4697C59.137 63.7573 59.8366 63.9191 60.5736 63.9191C63.3286 63.9191 65.5693 61.6753 65.5693 58.9165V48.6336L70.0752 53.1616C70.3613 53.4492 70.7375 53.5927 71.1136 53.5927C71.4874 53.5927 71.8613 53.4508 72.1474 53.1662C72.7203 52.5955 72.7226 51.6685 72.1519 51.0948L68.3952 47.3198C69.1223 46.9193 69.9417 46.7056 70.7947 46.7056C72.1283 46.7056 73.3826 47.226 74.3256 48.1712L80.9967 54.8531C82.0114 55.8701 82.5706 57.222 82.5706 58.6601V62.8441C82.5706 65.2054 83.4885 67.4248 85.1547 69.0941L85.6094 69.5496L83.4846 71.6782L70.6337 84.5512L69.9173 83.8333C69.9097 83.8264 69.9028 83.8188 69.8952 83.812L69.7693 83.6853C68.2526 82.1663 66.2376 81.2531 64.0968 81.1142C62.7945 81.0295 61.5692 80.4741 60.6422 79.5464L55.8289 74.7589C55.2551 74.1882 54.3274 74.1905 53.7567 74.7643C53.1868 75.338 53.1891 76.2657 53.7628 76.8356L58.5732 81.6193C59.9991 83.0482 61.8935 83.9073 63.9076 84.0378C65.3374 84.1301 66.6832 84.7404 67.6964 85.7552L67.7673 85.8261C67.8055 85.8696 67.8459 85.91 67.8886 85.9482L68.5638 86.6241L68.4891 86.6997C67.2836 87.9074 67.2836 89.872 68.4891 91.0797L75.3654 97.9683C75.9506 98.5542 76.7281 98.877 77.5558 98.877C78.3829 98.877 79.1611 98.5542 79.7462 97.9683L99.0959 78.5851C100.301 77.3773 100.301 75.4128 99.0959 74.205ZM86.4822 59.639L86.4548 59.6344L86.1877 59.5802L86.4822 59.639ZM39.3532 79.5494C38.4308 80.4741 37.2055 81.0295 35.9039 81.1142C33.7624 81.2531 31.7474 82.1663 30.2307 83.6853L29.3663 84.5512L28.5881 83.7715C28.5782 83.7616 28.5683 83.7509 28.5583 83.7418L14.3906 69.5496L14.8453 69.0941C16.5115 67.4248 17.4294 65.2054 17.4294 62.8441V58.6601C17.4294 57.222 17.9878 55.8701 19.0033 54.8531L25.6744 48.1712C26.6174 47.226 27.8717 46.7056 29.2053 46.7056C30.0606 46.7056 30.883 46.9208 31.6124 47.3244L27.8496 51.0933C27.2781 51.6655 27.2789 52.5932 27.8511 53.1647C28.1372 53.45 28.5118 53.5927 28.8864 53.5927C29.2618 53.5927 29.6371 53.4492 29.9232 53.1631L34.4177 48.6603V66.9479C34.4177 69.7067 36.6592 71.9505 39.4142 71.9505C40.1909 71.9505 40.9264 71.772 41.5825 71.4546C41.88 72.9065 42.8078 74.1302 44.0651 74.8276L39.3532 79.5494ZM62.6404 58.9172C62.6404 60.0601 61.7126 60.9901 60.5736 60.9901C59.4337 60.9901 58.5068 60.0601 58.5068 58.9172V42.5774C58.5068 41.7686 57.8514 41.1125 57.0419 41.1125C56.2325 41.1125 55.5771 41.7686 55.5771 42.5774V66.9487C55.5771 68.0916 54.6501 69.0208 53.5103 69.0208C52.4872 69.0208 51.638 68.2716 51.474 67.2913V42.5606C51.474 41.7511 50.8186 41.0957 50.0092 41.0957C49.749 41.0957 49.5041 41.1644 49.292 41.2834C48.8289 41.5298 48.5138 42.0166 48.5138 42.5774V66.9479C48.5138 67.1341 48.5245 67.3164 48.5443 67.4973V70.4491C48.5443 71.5919 47.6173 72.522 46.4775 72.522C45.3384 72.522 44.4115 71.5919 44.4115 70.4491V42.543C44.4115 41.7343 43.7553 41.0782 42.9466 41.0782C42.1371 41.0782 41.481 41.7343 41.481 42.543V66.9479C41.481 68.0908 40.554 69.0208 39.415 69.0208C38.2751 69.0208 37.3482 68.0908 37.3482 66.9479V39.6996C37.3482 38.8901 36.692 38.2339 35.8833 38.2339C35.0739 38.2339 34.4185 38.8901 34.4185 39.6996V44.7395C34.2957 44.7792 34.1766 44.8349 34.066 44.9081C32.1716 44.1963 30.8197 42.3637 30.8197 40.2199V30.7693C30.8197 29.3312 31.3789 27.9793 32.3936 26.9623L35.347 24.0036C37.014 22.3343 37.9318 20.1149 37.9318 17.7536V17.1112H40.8768C41.6862 17.1112 42.3416 16.4551 42.3416 15.6464C42.3416 14.8369 41.6862 14.1815 40.8768 14.1815H34.7763C34.684 14.1815 34.6092 14.106 34.6092 14.0137V4.26941C34.6092 4.17709 34.684 4.10156 34.7763 4.10156H62.1384C62.2314 4.10156 62.3062 4.17709 62.3062 4.26941V14.0137C62.3062 14.1068 62.2314 14.1815 62.1384 14.1815H47.7539C46.9452 14.1815 46.2891 14.8369 46.2891 15.6464C46.2891 16.4551 46.9452 17.1112 47.7539 17.1112H59.1087V18.3388C59.1087 20.4872 59.8877 22.5586 61.3029 24.173C62.1651 25.1556 62.6404 26.4175 62.6404 27.726V58.9172ZM97.0222 76.5152L77.6726 95.8984C77.6405 95.9312 77.6016 95.9473 77.5558 95.9473C77.5108 95.9473 77.4719 95.9312 77.4391 95.8984L70.5627 89.0099C70.4964 88.9435 70.4964 88.8359 70.5627 88.7695L71.6698 87.6602L71.6705 87.6595L82.9033 76.4076L89.9124 69.3863C89.9765 69.3214 90.081 69.3214 90.1451 69.3863L97.0222 76.2749C97.0886 76.3412 97.0886 76.4488 97.0222 76.5152Z" fill="black"/>
<path d="M39.4142 7.5791C38.5544 7.5791 37.8547 8.28024 37.8547 9.1416C37.8547 10.0037 38.5544 10.7041 39.4142 10.7041C40.2748 10.7041 40.9744 10.0037 40.9744 9.1416C40.9744 8.28024 40.2748 7.5791 39.4142 7.5791Z" fill="black"/>
<path d="M90.5081 74.353C89.6475 74.353 88.9479 75.0542 88.9479 75.9155C88.9479 76.7769 89.6475 77.478 90.5081 77.478C91.3679 77.478 92.0675 76.7769 92.0675 75.9155C92.0675 75.0542 91.3679 74.353 90.5081 74.353Z" fill="black"/>
<path d="M24.411 89.2974C24.411 88.436 23.7114 87.7349 22.8515 87.7349C21.9909 87.7349 21.2913 88.436 21.2913 89.2974C21.2913 90.1587 21.9909 90.8599 22.8515 90.8599C23.7114 90.8599 24.411 90.1587 24.411 89.2974Z" fill="black"/>
</g>
<defs>
<clipPath id="clip0">
<rect width="100" height="100" fill="white"/>
</clipPath>
</defs>
</svg>
