<svg width="20" height="20" viewBox="0 0 20 20" fill="none" xmlns="http://www.w3.org/2000/svg">
<g clip-path="url(#clip0)">
<path d="M2.7 0.166664C1.96668 0.166664 1.3 0.433344 0.8 0.933344C0.26668 1.46666 0 2.1333 0 2.8333C0 3.56663 0.3 4.2333 0.8 4.7333C1.3 5.2333 2 5.53331 2.66668 5.49998C2.66668 5.49998 2.7 5.49998 2.73336 5.49998C3.40004 5.49998 4.03336 5.2333 4.53336 4.7333C5.03336 4.2333 5.33336 3.56663 5.33336 2.8333C5.36668 2.1333 5.06668 1.46663 4.56668 0.966625C4.06668 0.433305 3.4 0.166664 2.7 0.166664ZM4.06668 4.26666C3.7 4.63334 3.2 4.86666 2.66668 4.83334C2.16668 4.83334 1.63336 4.63334 1.26668 4.26666C0.86668 3.89998 0.66668 3.36666 0.66668 2.83334C0.66668 2.30002 0.86668 1.80002 1.26668 1.40002C1.63336 1.03334 2.13336 0.833344 2.7 0.833344C3.2 0.833344 3.7 1.03334 4.06668 1.40002C4.46668 1.80002 4.66668 2.30002 4.66668 2.83334C4.66668 3.36666 4.46668 3.89998 4.06668 4.26666Z" fill="#A3B18A"/>
<path d="M3.99999 6.16665H1.29999C0.766672 6.16665 0.333313 6.59997 0.333313 7.16665V18.8333C0.333313 19.3666 0.799992 19.8333 1.33331 19.8333H3.99999C4.53331 19.8333 4.99999 19.3666 4.99999 18.8666V7.16665C4.99999 6.63329 4.53331 6.16665 3.99999 6.16665ZM4.33331 18.8666C4.33331 19.0333 4.16663 19.1666 3.99999 19.1666H1.33331C1.16663 19.1666 0.999992 19 0.999992 18.8333V7.16665C0.999992 6.99997 1.13331 6.83333 1.29999 6.83333H3.99999C4.16667 6.83333 4.33331 7.00001 4.33331 7.16665V18.8666Z" fill="#A3B18A"/>
<path d="M15.3333 5.83331H14.6333C13.3333 5.83331 12.1 6.39999 11.3 7.29999V6.83331C11.3 6.49999 10.9667 6.16663 10.6333 6.16663H7.29998C6.99998 6.16663 6.6333 6.43331 6.6333 6.79995V19.2333C6.6333 19.6 6.99998 19.8333 7.29998 19.8333H10.9667C11.2667 19.8333 11.6333 19.6 11.6333 19.2333V12.0333C11.6333 10.9333 12.4333 10.0666 13.4667 10.0666C14 10.0666 14.5 10.2666 14.8667 10.6333C15.2 10.9333 15.3333 11.4 15.3333 12V19.1666C15.3333 19.5 15.6667 19.8333 16 19.8333H19.3333C19.6667 19.8333 20 19.5 20 19.1666V10.5666C20 7.89999 17.9667 5.83331 15.3333 5.83331ZM19.3333 19.1333L19.3 19.1666H16.0333L16 12C16 11.2 15.8 10.6 15.3667 10.1667C14.8667 9.66667 14.2 9.39999 13.5 9.39999C12.1 9.43331 11 10.5667 11 12.0333V19.1666H7.3333V6.83331H10.6333L10.6666 6.86663V8.96663L11.5666 8.06663L11.5999 8.03331C12.2666 7.09999 13.4333 6.49999 14.6666 6.49999H15.3666C17.5999 6.49999 19.3333 8.29999 19.3333 10.5667V19.1333Z" fill="#A3B18A"/>
</g>
<defs>
<clipPath id="clip0">
<rect width="20" height="20" fill="white"/>
</clipPath>
</defs>
</svg>
