<svg width="20" height="20" viewBox="0 0 20 20" fill="none" xmlns="http://www.w3.org/2000/svg">
<path d="M10 0C4.48577 0 0 4.48577 0 10C0 11.8812 0.522692 13.7073 1.51423 15.2931C1.11923 16.6769 0.405769 19.2946 0.398077 19.3219C0.361154 19.4573 0.400769 19.6019 0.501923 19.6992C0.603077 19.7965 0.749231 19.8312 0.882308 19.7904L4.84615 18.5712C6.39885 19.5065 8.17692 20 10 20C15.5142 20 20 15.5142 20 10C20 4.48577 15.5142 0 10 0ZM10 19.2308C8.26192 19.2308 6.56885 18.745 5.10346 17.8265C5.04154 17.7877 4.97038 17.7681 4.89923 17.7681C4.86115 17.7681 4.82308 17.7738 4.78615 17.785L1.325 18.8504C1.57923 17.9223 2.03615 16.2623 2.30115 15.3388C2.33192 15.2319 2.31462 15.1165 2.25423 15.0231C1.28269 13.5281 0.769231 11.7912 0.769231 10C0.769231 4.91038 4.91038 0.769231 10 0.769231C15.0896 0.769231 19.2308 4.91038 19.2308 10C19.2308 15.0896 15.0896 19.2308 10 19.2308Z" fill="white" fill-opacity="0.5"/>
<path d="M16.5327 12.3561C15.8227 11.9618 15.218 11.5665 14.7769 11.278C14.44 11.058 14.1965 10.8991 14.018 10.8095C13.5192 10.5607 13.1411 10.7365 12.9973 10.8818C12.9792 10.8999 12.963 10.9195 12.9492 10.9403C12.4311 11.7176 11.7546 12.4611 11.5565 12.5011C11.3277 12.4653 10.2565 11.8565 9.19189 10.9699C8.10497 10.0641 7.42112 9.19684 7.32074 8.60607C8.01805 7.88838 8.2692 7.43684 8.2692 6.923C8.2692 6.39338 7.03381 4.18223 6.81035 3.95877C6.58612 3.73492 6.08112 3.69992 5.3092 3.85377C5.23497 3.86877 5.16651 3.9053 5.11266 3.95877C5.0192 4.05223 2.83228 6.28184 3.87151 8.98415C5.01228 11.9499 7.94035 15.3972 11.6734 15.9572C12.0977 16.0207 12.4954 16.0522 12.8677 16.0522C15.0638 16.0522 16.36 14.9472 16.725 12.7553C16.7523 12.5949 16.675 12.4349 16.5327 12.3561ZM11.7877 15.1965C7.83997 14.6045 5.35343 10.6934 4.58958 8.708C3.83189 6.73877 5.2292 4.983 5.57997 4.58607C5.86535 4.53761 6.16574 4.51723 6.29112 4.53684C6.55305 4.90107 7.45997 6.61453 7.49997 6.923C7.49997 7.12492 7.4342 7.40607 6.65112 8.18953C6.57881 8.26146 6.53843 8.35915 6.53843 8.46146C6.53843 10.4753 10.7861 13.2691 11.5384 13.2691C12.1927 13.2691 13.0457 12.1695 13.5315 11.453C13.5596 11.4541 13.6069 11.4638 13.6742 11.4976C13.8127 11.5672 14.0527 11.7238 14.3561 11.9222C14.7569 12.1841 15.2892 12.5318 15.9177 12.8922C15.6323 14.2653 14.8346 15.6541 11.7877 15.1965Z" fill="white" fill-opacity="0.5"/>
</svg>
